<svg xmlns="http://www.w3.org/2000/svg" width="96" height="96" viewBox="0 0 96 96">
  <defs>
    <linearGradient id="g" x1="0" y1="0" x2="1" y2="1">
      <stop offset="0" stop-color="#8c64ff"/>
      <stop offset="1" stop-color="#00beff"/>
    </linearGradient>
  </defs>
  <rect x="10" y="10" width="76" height="76" rx="18" fill="url(#g)"/>
  <path d="M30 52c0-10 8-18 18-18s18 8 18 18-8 18-18 18-18-8-18-18Z" fill="#0b0d12" opacity=".85"/>
  <path d="M38 46c2-5 7-8 10-8m0 0c3 0 8 3 10 8" stroke="#e9edf3" stroke-width="4" stroke-linecap="round"/>
  <circle cx="42" cy="54" r="3" fill="#e9edf3"/>
  <circle cx="54" cy="54" r="3" fill="#e9edf3"/>
  <path d="M48 56c0 4-4 6-6 6m6-6c0 4 4 6 6 6" stroke="#e9edf3" stroke-width="3" stroke-linecap="round"/>
</svg>